# xmcd
#
# Track frame offsets: 
#        150
#        14275
#        33352
#        47070
#        63765
#        73902
#        84695
#        100082
#        110885
#        123705
#        133590
#
# Disc length: 1977 seconds
#
# Revision: 0
# Processed by: cddbd v1.5.2PL0 Copyright (c) Steve Scherf et al.
# Submitted via: ExactAudioCopy v0.99pb5
#
DISCID=9b07b70b
DTITLE=Lowell Fulson - I've Got The Blues
DYEAR=1997
DGENRE=Blues
TTITLE0=Teach Me
TTITLE1=I've Got The Blues
TTITLE2=Every Second A Fool Is Born
TTITLE3=Don't Leave Me
TTITLE4=Change Of Heart
TTITLE5=Fed Up
TTITLE6=Searchin' Out
TTITLE7=Crying Won't Help
TTITLE8=Too Soon
TTITLE9=Stoned To The Bone
TTITLE10=The Last One To Know
EXTD=
EXTT0=
EXTT1=
EXTT2=
EXTT3=
EXTT4=
EXTT5=
EXTT6=
EXTT7=
EXTT8=
EXTT9=
EXTT10=
PLAYORDER=
